# Blender 4.1.1
# www.blender.org
mtllib BancaBiblioteca.mtl
o Cube.004
v -1.000000 -0.001163 1.000000
v -1.000000 1.998837 1.000000
v 1.000000 -0.001163 1.000000
v 1.000000 1.998837 1.000000
v -1.000000 -0.001163 0.006236
v -1.000000 1.998837 0.006236
v 1.000000 -0.001163 0.006236
v 1.000000 1.998837 0.006236
v 1.000000 3.821089 0.006236
v 1.000000 3.821089 1.000000
v -1.000000 3.821089 1.000000
v -1.000000 3.821089 0.006236
v -1.000000 -0.001163 13.022114
v -1.000000 1.998837 13.022114
v 1.000000 -0.001163 13.022114
v 1.000000 1.998837 13.022114
v -1.000000 -0.001163 12.028350
v -1.000000 1.998837 12.028350
v 1.000000 -0.001163 12.028350
v 1.000000 1.998837 12.028350
v 1.000000 3.821089 12.028350
v 1.000000 3.821089 13.022114
v -1.000000 3.821089 13.022114
v -1.000000 3.821089 12.028350
v -0.998272 3.822744 0.001114
v 1.001727 3.822744 0.001114
v -0.998272 4.816506 0.002645
v 1.001727 4.816506 0.002645
v -1.000000 3.821094 2.006202
v -1.000000 3.821094 0.006202
v 1.000000 3.821094 2.006202
v 1.000000 3.821094 0.006202
v -1.000000 4.831846 2.006202
v -1.000000 4.831846 0.006202
v 1.000000 4.831846 0.006202
v 1.000000 4.831846 2.006202
v 1.000000 4.831846 13.022121
v 1.000000 3.821094 13.022121
v -1.000000 3.821094 13.022121
v -1.000000 4.831846 13.022121
v 3.001400 1.998837 0.006236
v 3.001400 1.998837 1.000000
v 3.001400 -0.001163 1.000000
v 3.001400 -0.001163 0.006236
v 3.001400 3.821089 0.006236
v 3.001400 3.821089 1.000000
v 3.001400 1.998837 12.028350
v 3.001400 1.998837 13.022114
v 3.001400 -0.001163 13.022114
v 3.001400 -0.001163 12.028350
v 3.001400 3.821089 12.028350
v 3.001400 3.821089 13.022114
v 3.001400 4.831846 0.006202
v 3.001400 3.821094 0.006202
v 3.001400 3.821094 2.006202
v 3.001400 4.831846 2.006202
v 3.001400 4.831846 13.022121
v 3.001400 3.821094 13.022121
vn -0.0000 -0.0000 -1.0000
vn -0.0000 -0.0000 1.0000
vn -0.0000 -1.0000 -0.0000
vn -1.0000 -0.0000 -0.0000
vn -0.0000 1.0000 -0.0000
vn 1.0000 -0.0000 -0.0000
vt 0.375000 0.625780
vt 0.625000 0.625780
vt 0.375000 0.750000
vt 0.625000 0.750000
vt 0.625000 1.000000
vt 0.375000 1.000000
vt 0.125000 0.625780
vt 0.125000 0.750000
vt 0.625000 0.124220
vt 0.375000 0.124220
vt 0.375000 0.000000
vt 0.625000 0.000000
vt 0.875000 0.625780
vt 0.875000 0.750000
vt 0.501344 0.750000
vt 0.125000 0.500000
vt 0.375000 0.500000
vt 0.501344 0.500000
vt 0.501344 0.250000
vt 0.501344 0.000000
vt 0.375000 0.250000
vt 0.501344 1.000000
s 0
usemtl Marmol
f 19/1/1 20/2/1 47/2/1 50/1/1
f 3/3/2 4/4/2 2/5/2 1/6/2
f 5/7/3 7/1/3 3/3/3 1/8/3
f 8/2/1 6/9/1 12/9/1 9/2/1
f 6/9/1 8/2/1 7/1/1 5/10/1
f 1/11/4 2/12/4 6/9/4 5/10/4
f 9/2/5 12/13/5 11/14/5 10/4/5
f 6/9/4 2/12/4 11/12/4 12/9/4
f 37/15/2 38/3/2 58/3/2 57/15/2
f 2/5/2 4/4/2 10/4/2 11/5/2
f 20/2/1 21/2/1 51/2/1 47/2/1
f 15/3/2 16/4/2 14/5/2 13/6/2
f 17/7/3 19/1/3 15/3/3 13/8/3
f 20/2/1 18/9/1 24/9/1 21/2/1
f 18/9/1 20/2/1 19/1/1 17/10/1
f 13/11/4 14/12/4 18/9/4 17/10/4
f 21/2/5 24/13/5 23/14/5 22/4/5
f 18/9/4 14/12/4 23/12/4 24/9/4
f 38/3/3 31/3/3 55/3/3 58/3/3
f 14/5/2 16/4/2 22/4/2 23/5/2
f 30/16/3 32/17/3 31/3/3 29/8/3
f 36/15/5 35/18/5 34/19/5 33/20/5
f 33/20/4 29/11/4 39/11/4 40/20/4
f 3/3/3 7/1/3 44/1/3 43/3/3
f 30/21/1 34/19/1 35/18/1 32/17/1
f 29/11/4 33/20/4 34/19/4 30/21/4
f 38/3/2 37/15/2 40/22/2 39/6/2
f 31/3/3 32/17/3 54/17/3 55/3/3
f 36/15/5 33/20/5 40/20/5 37/15/5
f 29/8/3 31/3/3 38/3/3 39/8/3
f 44/1/6 41/2/6 42/4/6 43/3/6
f 42/4/6 41/2/6 45/2/6 46/4/6
f 50/1/6 47/2/6 48/4/6 49/3/6
f 48/4/6 47/2/6 51/2/6 52/4/6
f 54/17/6 53/18/6 56/15/6 55/3/6
f 55/3/6 56/15/6 57/15/6 58/3/6
f 16/4/2 15/3/2 49/3/2 48/4/2
f 22/4/2 16/4/2 48/4/2 52/4/2
f 8/2/1 9/2/1 45/2/1 41/2/1
f 21/2/5 22/4/5 52/4/5 51/2/5
f 7/1/1 8/2/1 41/2/1 44/1/1
f 4/4/2 3/3/2 43/3/2 42/4/2
f 10/4/2 4/4/2 42/4/2 46/4/2
f 35/18/5 36/15/5 56/15/5 53/18/5
f 9/2/5 10/4/5 46/4/5 45/2/5
f 15/3/3 19/1/3 50/1/3 49/3/3
f 32/17/1 35/18/1 53/18/1 54/17/1
f 36/15/5 37/15/5 57/15/5 56/15/5
