<?xml version="1.0" encoding="UTF-8" standalone="no"?>
<!-- Uploaded to: SVG Repo, www.svgrepo.com, Generator: SVG Repo Mixer Tools -->

<svg
   width="800px"
   height="800px"
   viewBox="0 0 512 512"
   version="1.1"
   id="svg58"
   sodipodi:docname="jump-across-svgrepo-com.svg"
   inkscape:version="1.2.2 (b0a8486541, 2022-12-01)"
   inkscape:export-filename="jump-across-svgrepo-com.png"
   inkscape:export-xdpi="72"
   inkscape:export-ydpi="72"
   xmlns:inkscape="http://www.inkscape.org/namespaces/inkscape"
   xmlns:sodipodi="http://sodipodi.sourceforge.net/DTD/sodipodi-0.dtd"
   xmlns="http://www.w3.org/2000/svg"
   xmlns:svg="http://www.w3.org/2000/svg">
  <defs
     id="defs62" />
  <sodipodi:namedview
     id="namedview60"
     pagecolor="#505050"
     bordercolor="#eeeeee"
     borderopacity="1"
     inkscape:showpageshadow="0"
     inkscape:pageopacity="0"
     inkscape:pagecheckerboard="0"
     inkscape:deskcolor="#505050"
     showgrid="false"
     inkscape:zoom="0.66916341"
     inkscape:cx="265.25659"
     inkscape:cy="489.41708"
     inkscape:window-width="1920"
     inkscape:window-height="1004"
     inkscape:window-x="0"
     inkscape:window-y="0"
     inkscape:window-maximized="1"
     inkscape:current-layer="svg58" />
  <path
     fill="#000000"
     d="m 234.69274,8.9596569 c 21.39489,-0.1362403 42.18784,8.4334051 52.18312,27.1636661 11.95578,22.40597 -1.3268,77.118757 -13.49279,98.477897 l 19.89711,9.01272 c 8.40849,-5.31477 67.69988,-18.46196 92.53115,-14.94194 40.26576,9.26155 73.11725,23.02521 115.02232,47.0446 l -11.54219,17.92642 c -8.28601,12.86915 -68.87112,-20.42463 -108.24203,-23.14942 -31.43395,-2.17708 -61.17742,16.03603 -84.79412,25.79112 -10.45802,93.09273 -23.76254,65.74853 30.52758,148.13917 38.72567,23.34436 119.54786,125.29864 119.33229,132.94283 l -0.44511,15.78308 C 444.23503,544.03461 321.10341,399.23441 279.16324,376.17644 194.34425,318.11166 250.84117,365.71204 159.05307,323.90573 114.821,337.01537 123.93343,419.35415 93.780685,404.06837 L 73.464421,393.76916 c -20.359229,-10.321 24.625754,-95.94257 82.924519,-110.69624 33.5035,-8.47874 51.61712,17.11658 80.87888,35.18928 -9.69309,-34.29642 -11.55604,-72.10158 -12.3371,-111.77337 -27.42972,9.55491 -56.04259,24.19702 -79.23818,14.09253 -45.26158,-19.71689 -98.213213,-53.99277 -91.471316,-97.40625 1.551478,-9.99052 1.157918,-43.63445 26.925169,-15.41782 24.028377,26.31244 41.920477,59.32944 76.129517,85.64188 23.82693,-1.80725 44.07896,-25.15077 67.23,-36.6144 l 3.98817,-10.58644 c -22.49557,-9.23097 -31.59861,-54.046216 -39.14727,-74.5045 -9.5661,-25.923195 9.18076,-51.827998 36.29953,-61.209116 2.9634,-1.0259727 5.98957,-1.5069844 9.0464,-1.5264473 z"
     id="path56"
     style="fill:#999999;stroke-width:1.42459"
     sodipodi:nodetypes="ccccccscccssccsssccsssccccccc" />
  <path
     fill="#000000"
     d="m 220.4722,8.8455691 c 21.39489,-0.1362405 42.18784,8.4334049 52.18312,27.1636659 11.95578,22.40597 -1.3268,77.118765 -13.49279,98.477895 l 19.89711,9.01272 c 8.40849,-5.31477 67.69988,-18.46196 92.53115,-14.94195 40.26576,9.26155 73.11725,23.02522 115.02232,47.0446 l -11.54219,17.92642 c -8.28601,12.86916 -68.87112,-20.42462 -108.24203,-23.14941 -31.43395,-2.17708 -61.17742,16.03603 -84.79412,25.79112 -10.45802,93.09272 -23.76254,65.74852 30.52758,148.13917 38.72567,23.34435 119.54786,125.29863 119.33229,132.94283 l -0.44511,15.78307 C 430.01449,543.92052 306.88287,399.12031 264.9427,376.06235 180.12371,317.99757 236.62063,365.59794 144.83253,323.79163 100.60047,336.90128 109.7129,419.24005 79.560155,403.95428 l -20.31627,-10.29922 c -20.35923,-10.321 24.62575,-95.94256 82.924515,-110.69623 33.5035,-8.47874 51.61712,17.11658 80.87888,35.18928 -9.69309,-34.29642 -11.55604,-72.10159 -12.3371,-111.77337 -27.42972,9.5549 -56.04259,24.19702 -79.23818,14.09253 -45.261575,-19.71689 -98.213205,-53.99278 -91.471315,-97.40626 1.55148,-9.99051 1.15792,-43.634438 26.92517,-15.41781 24.02837,26.31244 41.920475,59.32944 76.129515,85.64187 23.82693,-1.80725 44.07896,-25.15076 67.23,-36.6144 l 3.98817,-10.58644 c -22.49557,-9.23097 -31.59861,-54.046204 -39.14727,-74.504488 -9.5661,-25.923195 9.18076,-51.827998 36.29953,-61.209116 2.9634,-1.0259729 5.98957,-1.5069848 9.0464,-1.5264476 z"
     id="path56-3"
     style="fill:#ffffff;stroke-width:1.42459"
     sodipodi:nodetypes="ccccccscccssccsssccsssccccccc" />
</svg>
